<?xml version="1.0" encoding="UTF-8"?>
<svg id="_Слой_1" xmlns="http://www.w3.org/2000/svg" version="1.1" viewBox="0 0 576 1024">
  <!-- Generator: Adobe Illustrator 29.4.0, SVG Export Plug-In . SVG Version: 2.1.0 Build 152)  -->
  <defs>
    <style>
      .st0 {
        font-size: 11.78px;
      }

      .st0, .st1, .st2, .st3, .st4, .st5, .st6 {
        isolation: isolate;
      }

      .st0, .st1, .st2, .st6 {
        font-family: Arial-BoldMT, Arial;
        font-weight: 700;
      }

      .st0, .st2, .st7, .st6 {
        fill: #fff;
      }

      .st1 {
        font-size: 14px;
      }

      .st1, .st8 {
        fill: none;
      }

      .st2 {
        font-size: 14.75px;
      }

      .st3 {
        font-size: 15.41px;
      }

      .st3, .st5 {
        fill: #8b90a0;
        font-family: ArialMT, Arial;
      }

      .st9, .st10 {
        fill: #1f222a;
      }

      .st11 {
        fill: #171920;
      }

      .st11, .st12, .st13 {
        stroke: #2a2e37;
      }

      .st11, .st10 {
        stroke-width: 2px;
      }

      .st12 {
        stroke-width: 1.5px;
      }

      .st10 {
        stroke: #7a57c6;
        stroke-miterlimit: 10;
      }

      .st13 {
        fill: #262a33;
      }

      .st14 {
        fill: #7a57c6;
      }

      .st5 {
        font-size: 15.94px;
      }

      .st6 {
        font-size: 22px;
      }
    </style>
  </defs>
  <rect class="st11" y="0" width="576" height="1024" rx="16" ry="16"/>
  <g class="st4">
    <text class="st6" transform="translate(266.61 43.55)"><tspan x="0" y="0">Бой</tspan></text>
  </g>
  <g id="btn_rollback">
    <rect class="st13" x="401.72" y="903.72" width="40.82" height="40.82" rx="8" ry="8"/>
    <g>
      <polygon class="st7" points="407.61 924.13 422.13 936.35 422.13 911.91 407.61 924.13"/>
      <polygon class="st7" points="419.36 924.13 433.87 936.35 433.87 911.91 419.36 924.13"/>
    </g>
  </g>
  <g id="board">
    <rect class="st12" x="26" y="302.1" width="524" height="449.35" rx="14" ry="14"/>
    <g id="cam">
      <g>
        <g id="cells">
          <rect id="cell_-2_4" class="st9" x="111.61" y="314.16" width="64" height="64" rx="8" ry="8"/>
          <rect id="cell_-1_4" class="st9" x="183.61" y="314.16" width="64" height="64" rx="8" ry="8"/>
          <rect id="cell_0_4" class="st9" x="255.61" y="314.16" width="64" height="64" rx="8" ry="8"/>
          <rect id="cell_1_4" class="st9" x="327.61" y="314.16" width="64" height="64" rx="8" ry="8"/>
          <rect id="cell_2_4" class="st9" x="399.61" y="314.16" width="64" height="64" rx="8" ry="8"/>
          <rect id="cell_-3_3" class="st9" x="39.61" y="386.16" width="64" height="64" rx="8" ry="8"/>
          <rect id="cell_-2_3" class="st9" x="111.61" y="386.16" width="64" height="64" rx="8" ry="8"/>
          <rect id="cell_-1_3" class="st9" x="183.61" y="386.16" width="64" height="64" rx="8" ry="8"/>
          <rect id="cell_0_3" class="st9" x="255.61" y="386.16" width="64" height="64" rx="8" ry="8"/>
          <rect id="cell_1_3" class="st9" x="327.61" y="386.16" width="64" height="64" rx="8" ry="8"/>
          <rect id="cell_2_3" class="st9" x="399.61" y="386.16" width="64" height="64" rx="8" ry="8"/>
          <rect id="cell_3_3" class="st9" x="471.61" y="386.16" width="64" height="64" rx="8" ry="8"/>
          <rect id="cell_-3_2" class="st9" x="39.61" y="458.16" width="64" height="64" rx="8" ry="8"/>
          <rect id="cell_-2_2" class="st9" x="111.61" y="458.16" width="64" height="64" rx="8" ry="8"/>
          <rect id="cell_-1_2" class="st9" x="183.61" y="458.16" width="64" height="64" rx="8" ry="8"/>
          <rect id="cell_0_2" class="st9" x="255.61" y="458.16" width="64" height="64" rx="8" ry="8"/>
          <rect id="cell_1_2" class="st9" x="327.61" y="458.16" width="64" height="64" rx="8" ry="8"/>
          <rect id="cell_2_2" class="st9" x="399.61" y="458.16" width="64" height="64" rx="8" ry="8"/>
          <rect id="cell_3_2" class="st9" x="471.61" y="458.16" width="64" height="64" rx="8" ry="8"/>
          <rect id="cell_-3_1" class="st9" x="39.61" y="530.16" width="64" height="64" rx="8" ry="8"/>
          <rect id="cell_-2_1" class="st9" x="111.61" y="530.16" width="64" height="64" rx="8" ry="8"/>
          <rect id="cell_-1_1" class="st9" x="183.61" y="530.16" width="64" height="64" rx="8" ry="8"/>
          <rect id="cell_0_1" class="st9" x="255.61" y="530.16" width="64" height="64" rx="8" ry="8"/>
          <rect id="cell_1_1" class="st9" x="327.61" y="530.16" width="64" height="64" rx="8" ry="8"/>
          <rect id="cell_2_1" class="st9" x="399.61" y="530.16" width="64" height="64" rx="8" ry="8"/>
          <rect id="cell_3_1" class="st9" x="471.61" y="530.16" width="64" height="64" rx="8" ry="8"/>
          <rect id="cell_-2_0" class="st9" x="111.61" y="602.16" width="64" height="64" rx="8" ry="8"/>
          <rect id="cell_-1_0" class="st9" x="183.61" y="602.16" width="64" height="64" rx="8" ry="8"/>
          <rect id="cell_0_0" class="st10" x="255.61" y="602.16" width="64" height="64" rx="8" ry="8"/>
          <rect id="cell_1_0" class="st9" x="327.61" y="602.16" width="64" height="64" rx="8" ry="8"/>
          <rect id="cell_2_0" class="st9" x="399.61" y="602.16" width="64" height="64" rx="8" ry="8"/>
          <rect id="cell_-1_-1" class="st9" x="183.61" y="674.16" width="64" height="64" rx="8" ry="8"/>
          <rect id="cell_0_-1" class="st9" x="255.61" y="674.16" width="64" height="64" rx="8" ry="8"/>
          <rect id="cell_1_-1" class="st9" x="327.61" y="674.16" width="64" height="64" rx="8" ry="8"/>
        </g>
        <g id="sprites">
          <g id="sprite_hero">
            <rect class="st8" x="275.61" y="622.16" width="24" height="24" rx="6" ry="6"/>
            <g class="st4">
              <text class="st1" transform="translate(283.64 640.16)"><tspan x="0" y="0">Г</tspan></text>
            </g>
          </g>
        </g>
      </g>
    </g>
  </g>
  <g id="btn_attack">
    <path class="st14" d="M506.21,741.01l27.13-15.66c1.61-.93,2.6-2.64,2.6-4.5v-31.32c0-1.85-.99-3.57-2.6-4.5l-27.13-15.66c-1.61-.93-3.58-.93-5.19,0l-27.13,15.66c-1.61.93-2.6,2.64-2.6,4.5v31.32c0,1.85.99,3.57,2.6,4.5l27.13,15.66c1.61.93,3.58.93,5.19,0h0Z"/>
    <g>
      <polygon class="st7" points="503.06 704.19 503.82 703.75 516.96 696.17 518.19 696.77 518.1 698.15 504.97 705.73 504.2 706.17 497.87 709.83 499.36 712.42 524.8 697.73 527.56 696.14 529.61 694.95 529.95 689.99 525.48 687.8 523.43 688.98 520.67 690.58 495.23 705.27 496.72 707.85 503.06 704.19"/>
      <polygon class="st7" points="486.29 718.64 492.28 715.18 490.79 712.6 489.3 710.01 483.3 713.47 479.47 715.68 478.73 714.39 476.56 715.64 477.31 716.93 478.05 718.23 478.8 719.52 479.55 720.81 480.29 722.11 481.04 723.4 483.21 722.15 482.46 720.85 486.29 718.64"/>
      <polygon class="st7" points="495.13 710.09 491 702.94 488.83 704.19 492.96 711.34 497.09 718.5 499.26 717.25 495.13 710.09"/>
    </g>
  </g>
  <g id="btn_defense">
    <path class="st14" d="M103.61,707.66v-37.68H39.61v37.68c0,8.83,4.71,17,12.36,21.41l19.64,11.34,19.64-11.34c7.65-4.42,12.36-12.58,12.36-21.41Z"/>
    <path class="st7" d="M71.61,683.98c2.49,0,4.98.28,7.41.83l1.54.35c2.07.47,4.18.81,6.3,1.01v20.89c0,2.94-1.58,5.68-4.13,7.15l-11.11,6.42-11.11-6.42c-2.55-1.47-4.13-4.21-4.13-7.15v-20.89c2.12-.2,4.22-.54,6.3-1.01l1.54-.35c2.43-.55,4.92-.83,7.41-.83M71.61,678.23c-2.91,0-5.82.32-8.67.97l-1.54.35c-3.25.73-6.57,1.1-9.9,1.1h-.88v26.4c0,5,2.67,9.62,7,12.13l13.99,8.08,13.99-8.08c4.33-2.5,7-7.12,7-12.13v-26.4h-.88c-3.33,0-6.65-.37-9.9-1.1l-1.54-.35c-2.86-.65-5.76-.97-8.67-.97h0Z"/>
  </g>
  <g id="btn_ranger_precise">
    <path class="st14" d="M506.21,657.92l17.77-10.26c1.61-.93,2.6-2.64,2.6-4.5v-20.52c0-1.85-.99-3.57-2.6-4.5l-17.77-10.26c-1.61-.93-3.58-.93-5.19,0l-17.77,10.26c-1.61.93-2.6,2.64-2.6,4.5v20.52c0,1.85.99,3.57,2.6,4.5l17.77,10.26c1.61.93,3.58.93,5.19,0Z"/>
    <path class="st7" d="M519.64,631.32h-3.93c-.71-5.47-5.05-9.8-10.52-10.52v-3.93h-3.17v3.93c-5.47.71-9.8,5.05-10.52,10.52h-3.93v3.17h3.93c.71,5.47,5.05,9.8,10.52,10.52v3.93h3.17v-3.93c5.47-.71,9.8-5.05,10.52-10.52h3.93v-3.17ZM505.19,641.8v-3.67h-3.17v3.67c-3.72-.66-6.65-3.6-7.32-7.32h3.67v-3.17h-3.67c.66-3.72,3.6-6.65,7.32-7.32v3.67h3.17v-3.67c3.72.66,6.65,3.6,7.32,7.32h-3.67v3.17h3.67c-.66,3.72-3.6,6.65-7.32,7.32Z"/>
  </g>
  <g id="btn_throw">
    <path class="st14" d="M433.89,730.21l17.77-10.26c1.61-.93,2.6-2.64,2.6-4.5v-20.52c0-1.85-.99-3.57-2.6-4.5l-17.77-10.26c-1.61-.93-3.58-.93-5.19,0l-17.77,10.26c-1.61.93-2.6,2.64-2.6,4.5v20.52c0,1.85.99,3.57,2.6,4.5l17.77,10.26c1.61.93,3.58.93,5.19,0Z"/>
    <g>
      <path class="st7" d="M443.5,701.32c-5.04,1.35-10.08,2.7-15.13,4.05l-.55-2.06,21.35-5.72-1.93,2.95c-1.88,2.88-4.75,4.96-8.07,5.85-3.28.88-6.55,1.76-9.83,2.63l-.55-2.06c4.9-1.88,9.8-3.76,14.7-5.63h0Z"/>
      <polygon class="st7" points="427.24 708.05 428.39 712.33 426.66 712.79 425.51 708.51 424.37 704.23 426.09 703.77 427.24 708.05"/>
      <rect class="st7" x="415.42" y="706.47" width="8.11" height="4.27" transform="translate(-169.11 132.71) rotate(-15)"/>
      <path class="st7" d="M414.2,711.47l-.73-2.73c-.26-.96.31-1.94,1.27-2.19l1.66,6.19c-.96.26-1.94-.31-2.19-1.27Z"/>
    </g>
    <polygon class="st7" points="449.18 697.58 426.35 696.71 426.41 695.71 449.18 697.58 449.18 697.58"/>
    <polygon class="st7" points="449.18 697.58 422.87 700.52 422.78 699.52 449.18 697.58 449.18 697.58"/>
    <polygon class="st7" points="449.18 697.58 443.41 712.03 442.49 711.62 449.18 697.58 449.18 697.58"/>
  </g>
  <g id="btn_potion">
    <path class="st14" d="M146.21,731.18l17.77-10.26c1.61-.93,2.6-2.64,2.6-4.5v-20.52c0-1.85-.99-3.57-2.6-4.5l-17.77-10.26c-1.61-.93-3.58-.93-5.19,0l-17.77,10.26c-1.61.93-2.6,2.64-2.6,4.5v20.52c0,1.85.99,3.57,2.6,4.5l17.77,10.26c1.61.93,3.58.93,5.19,0Z"/>
    <path class="st7" d="M147.15,698.69v-.69h.43c.89,0,1.61-.72,1.61-1.61v-.52c0-.89-.72-1.61-1.61-1.61h-7.94c-.89,0-1.61.72-1.61,1.61v.52c0,.89.72,1.61,1.61,1.61h.43v.69c0,1.68-.53,3.32-1.51,4.69l-1.5,2.09c-.98,1.37-1.51,3.01-1.51,4.69v5.51c0,1.32,1.07,2.39,2.39,2.39h11.35c1.32,0,2.39-1.07,2.39-2.39v-5.51c0-1.68-.53-3.32-1.51-4.69l-1.5-2.09c-.98-1.37-1.51-3.01-1.51-4.69h-.01Z"/>
  </g>
  <g id="btn_bandage">
    <path class="st14" d="M74.21,657.78l17.77-10.26c1.61-.93,2.6-2.64,2.6-4.5v-20.52c0-1.85-.99-3.57-2.6-4.5l-17.77-10.26c-1.61-.93-3.58-.93-5.19,0l-17.77,10.26c-1.61.93-2.6,2.64-2.6,4.5v20.52c0,1.85.99,3.57,2.6,4.5l17.77,10.26c1.61.93,3.58.93,5.19,0Z"/>
    <g>
      <path class="st7" d="M71.61,617.91l-8.01,17.13c-.96,2.05-1.06,4.32-.42,6.38l13.23-13.23-4.81-10.28h0Z"/>
      <path class="st7" d="M78.22,632.04l-12.92,12.92s.04.05.06.07c3.45,3.45,9.05,3.45,12.5,0,2.63-2.63,3.33-6.62,1.76-9.99l-1.4-2.99h0Z"/>
    </g>
  </g>
  <g id="footer">
    <g id="player_input">
      <rect class="st13" x="26" y="809.1" width="524" height="77.22" rx="8.94" ry="8.94"/>
      <g id="input_text" class="st4">
        <text class="st5" transform="translate(36.33 835.91)"><tspan x="0" y="0">Опишите ход... (черновик заполняется автоматически)</tspan></text>
      </g>
    </g>
    <g id="btn_end_turn">
      <path class="st14" d="M217.38,902.1h141.24c12.81,0,23.19,10.38,23.19,23.19h0c0,12.81-10.38,23.19-23.19,23.19h-141.24c-12.81,0-23.19-10.38-23.19-23.19h0c0-12.81,10.38-23.19,23.19-23.19h0Z"/>
      <g class="st4">
        <text class="st2" transform="translate(239.11 930.84)"><tspan x="0" y="0">КОНЕЦ ХОДА</tspan></text>
      </g>
    </g>
  </g>
  <g id="btn_turn_left">
    <rect class="st13" x="52.4" y="329.98" width="38.41" height="38.41" rx="8" ry="8" transform="translate(143.21 698.37) rotate(180)"/>
    <g>
      <path class="st7" d="M71.6,362.38v-5c4.52,0,8.2-3.68,8.2-8.2s-3.68-8.2-8.2-8.2c-2.19,0-4.25.85-5.8,2.4l-3.54-3.54c2.49-2.49,5.81-3.87,9.33-3.87,7.28,0,13.2,5.92,13.2,13.2s-5.92,13.2-13.2,13.2Z"/>
      <polygon class="st7" points="59.39 335.53 70.13 346.27 59.39 346.27 59.39 335.53"/>
    </g>
  </g>
  <g id="btn_turn_right">
    <rect class="st13" x="484.4" y="326.95" width="38.41" height="38.41" rx="8" ry="8"/>
    <g>
      <path class="st7" d="M504.1,359.58v-5c-4.52,0-8.2-3.68-8.2-8.2s3.68-8.2,8.2-8.2c2.19,0,4.25.85,5.8,2.4l3.54-3.54c-2.49-2.49-5.81-3.87-9.33-3.87-7.28,0-13.2,5.92-13.2,13.2,0,7.28,5.92,13.2,13.2,13.2Z"/>
      <polygon class="st7" points="516.31 332.73 505.57 343.47 516.31 343.47 516.31 332.73"/>
    </g>
  </g>
  <g id="dm_log">
    <rect class="st13" x="26" y="73.95" width="524" height="211.73" rx="11.5" ry="11.5"/>
    <g id="dm_log_text" class="st4">
      <text class="st3" transform="translate(39.61 100.59) scale(1.03 1)"><tspan x="0" y="0">Текст БойРеж</tspan></text>
    </g>
  </g>
  <g id="counter_atk">
    <path class="st13" d="M152.6,768.49h67.29c6.5,0,11.78,5.27,11.78,11.78h0c0,6.5-5.27,11.78-11.78,11.78h-67.29c-6.5,0-11.78-5.27-11.78-11.78h0c0-6.5,5.27-11.78,11.78-11.78Z"/>
    <g class="st4">
      <text class="st0" transform="translate(165.29 784.47)"><tspan x="0" y="0">АТК 1/1</tspan></text>
    </g>
  </g>
  <g id="counter_move">
    <path class="st13" d="M360.02,768.49h67.29c6.5,0,11.78,5.27,11.78,11.78h0c0,6.5-5.27,11.78-11.78,11.78h-67.29c-6.5,0-11.78-5.27-11.78-11.78h0c0-6.5,5.27-11.78,11.78-11.78Z"/>
    <g class="st4">
      <text class="st0" transform="translate(365.84 784.47)"><tspan x="0" y="0">ДВИЖ 1/1</tspan></text>
    </g>
  </g>
  <g id="counter_simple">
    <path class="st13" d="M258.09,768.49h67.29c6.5,0,11.78,5.27,11.78,11.78h0c0,6.5-5.27,11.78-11.78,11.78h-67.29c-6.5,0-11.78-5.27-11.78-11.78h0c0-6.5,5.27-11.78,11.78-11.78h0Z"/>
    <g class="st4">
      <text class="st0" transform="translate(261.57 784.47)"><tspan x="0" y="0">ПРОСТ 1/1</tspan></text>
    </g>
  </g>
  <g>
    <g>
      <polygon class="st9" points="489.58 925.27 488.7 925.27 473.53 925.27 472.76 924.13 473.53 922.98 488.7 922.98 489.58 922.98 496.9 922.98 496.9 920 467.52 920 464.34 920 461.97 920 459.19 924.13 461.97 928.26 464.34 928.26 467.52 928.26 496.9 928.26 496.9 925.27 489.58 925.27"/>
      <polygon class="st9" points="511.33 921.14 504.41 921.14 504.41 924.13 504.41 927.11 511.33 927.11 515.75 927.11 515.75 928.61 518.25 928.61 518.25 927.11 518.25 925.62 518.25 924.13 518.25 922.63 518.25 921.14 518.25 919.65 515.75 919.65 515.75 921.14 511.33 921.14"/>
      <polygon class="st9" points="499.4 924.13 499.4 932.39 501.91 932.39 501.91 924.13 501.91 915.87 499.4 915.87 499.4 924.13"/>
    </g>
    <g>
      <polygon class="st9" points="86.42 922.98 87.3 922.98 102.47 922.98 103.24 924.13 102.47 925.27 87.3 925.27 86.42 925.27 79.1 925.27 79.1 928.26 108.48 928.26 111.66 928.26 114.03 928.26 116.81 924.13 114.03 920 111.66 920 108.48 920 79.1 920 79.1 922.98 86.42 922.98"/>
      <polygon class="st9" points="64.67 927.11 71.59 927.11 71.59 924.13 71.59 921.14 64.67 921.14 60.25 921.14 60.25 919.65 57.75 919.65 57.75 921.14 57.75 922.63 57.75 924.13 57.75 925.62 57.75 927.11 57.75 928.61 60.25 928.61 60.25 927.11 64.67 927.11"/>
      <polygon class="st9" points="76.6 924.13 76.6 915.87 74.09 915.87 74.09 924.13 74.09 932.39 76.6 932.39 76.6 924.13"/>
    </g>
  </g>
  <g>
    <g>
      <polygon class="st9" points="489.58 781.42 488.7 781.42 473.53 781.42 472.76 780.27 473.53 779.13 488.7 779.13 489.58 779.13 496.9 779.13 496.9 776.14 467.52 776.14 464.34 776.14 461.97 776.14 459.19 780.27 461.97 784.4 464.34 784.4 467.52 784.4 496.9 784.4 496.9 781.42 489.58 781.42"/>
      <polygon class="st9" points="511.33 777.29 504.41 777.29 504.41 780.27 504.41 783.26 511.33 783.26 515.75 783.26 515.75 784.75 518.25 784.75 518.25 783.26 518.25 781.77 518.25 780.27 518.25 778.78 518.25 777.29 518.25 775.79 515.75 775.79 515.75 777.29 511.33 777.29"/>
      <polygon class="st9" points="499.4 780.27 499.4 788.53 501.91 788.53 501.91 780.27 501.91 772.01 499.4 772.01 499.4 780.27"/>
    </g>
    <g>
      <polygon class="st9" points="86.42 779.13 87.3 779.13 102.47 779.13 103.24 780.27 102.47 781.42 87.3 781.42 86.42 781.42 79.1 781.42 79.1 784.4 108.48 784.4 111.66 784.4 114.03 784.4 116.81 780.27 114.03 776.14 111.66 776.14 108.48 776.14 79.1 776.14 79.1 779.13 86.42 779.13"/>
      <polygon class="st9" points="64.67 783.26 71.59 783.26 71.59 780.27 71.59 777.29 64.67 777.29 60.25 777.29 60.25 775.79 57.75 775.79 57.75 777.29 57.75 778.78 57.75 780.27 57.75 781.77 57.75 783.26 57.75 784.75 60.25 784.75 60.25 783.26 64.67 783.26"/>
      <polygon class="st9" points="76.6 780.27 76.6 772.01 74.09 772.01 74.09 780.27 74.09 788.53 76.6 788.53 76.6 780.27"/>
    </g>
  </g>
  <g>
    <g>
      <polygon class="st9" points="489.58 36.44 488.7 36.44 473.53 36.44 472.76 35.29 473.53 34.15 488.7 34.15 489.58 34.15 496.9 34.15 496.9 31.16 467.52 31.16 464.34 31.16 461.97 31.16 459.19 35.29 461.97 39.42 464.34 39.42 467.52 39.42 496.9 39.42 496.9 36.44 489.58 36.44"/>
      <polygon class="st9" points="511.33 32.31 504.41 32.31 504.41 35.29 504.41 38.28 511.33 38.28 515.75 38.28 515.75 39.77 518.25 39.77 518.25 38.28 518.25 36.79 518.25 35.29 518.25 33.8 518.25 32.31 518.25 30.81 515.75 30.81 515.75 32.31 511.33 32.31"/>
      <polygon class="st9" points="499.4 35.29 499.4 43.55 501.91 43.55 501.91 35.29 501.91 27.03 499.4 27.03 499.4 35.29"/>
    </g>
    <g>
      <polygon class="st9" points="86.42 34.15 87.3 34.15 102.47 34.15 103.24 35.29 102.47 36.44 87.3 36.44 86.42 36.44 79.1 36.44 79.1 39.42 108.48 39.42 111.66 39.42 114.03 39.42 116.81 35.29 114.03 31.16 111.66 31.16 108.48 31.16 79.1 31.16 79.1 34.15 86.42 34.15"/>
      <polygon class="st9" points="64.67 38.28 71.59 38.28 71.59 35.29 71.59 32.31 64.67 32.31 60.25 32.31 60.25 30.81 57.75 30.81 57.75 32.31 57.75 33.8 57.75 35.29 57.75 36.79 57.75 38.28 57.75 39.77 60.25 39.77 60.25 38.28 64.67 38.28"/>
      <polygon class="st9" points="76.6 35.29 76.6 27.03 74.09 27.03 74.09 35.29 74.09 43.55 76.6 43.55 76.6 35.29"/>
    </g>
  </g>
</svg>
