<?xml version="1.0" encoding="UTF-8"?>
<svg data-dw-combat="1" id="_Слой_1" xmlns="http://www.w3.org/2000/svg" version="1.1" viewBox="0 0 576 1024">
  <!-- Generator: Adobe Illustrator 29.4.0, SVG Export Plug-In . SVG Version: 2.1.0 Build 152)  -->
  <defs>
    <style>
      .st0, .st1, .st2, .st3, .st4, .st5 {
        fill: #fff;
      }

      .st6 {
        fill: #1f222a;
      }

      .st1 {
        font-size: 21.95px;
      }

      .st1, .st2 {
        font-family: MyriadPro-Regular, 'Myriad Pro';
      }

      .st1, .st2, .st7, .st3, .st8, .st4, .st9, .st5 {
        isolation: isolate;
      }

      .st10 {
        fill: #171920;
        stroke-width: 2px;
      }

      .st10, .st11, .st12 {
        stroke: #2a2e37;
      }

      .st11 {
        stroke-width: 1.5px;
      }

      .st2 {
        font-size: 23.33px;
      }

      .st12 {
        fill: #262a33;
      }

      .st7 {
        font-size: 14px;
      }

      .st7, .st3, .st4, .st5 {
        font-family: Arial-BoldMT, Arial;
        font-weight: 700;
      }

      .st7, .st13 {
        fill: #4c5777;
      }

      .st3 {
        font-size: 14.75px;
      }

      .st8 {
        font-size: 15.41px;
      }

      .st8, .st9 {
        fill: #8b90a0;
        font-family: ArialMT, Arial;
      }

      .st14 {
        fill: #7a57c6;
      }

      .st4 {
        font-size: 11.78px;
      }

      .st9 {
        font-size: 15.94px;
      }

      .st5 {
        font-size: 22px;
      }
    </style>
  </defs>
  <rect class="st10" width="576" height="1024" rx="16" ry="16"/>
  <text class="st5" transform="translate(266.61 43.55)"><tspan x="0" y="0">Бой</tspan></text>
  <g id="btn_rollback">
    <rect class="st12" x="401.72" y="903.72" width="40.82" height="40.82" rx="8" ry="8"/>
    <text class="st2" transform="translate(413.38 932.87)"><tspan x="0" y="0">↺</tspan></text>
  </g>
  <g id="board">
    <rect class="st11" x="26" y="302.1" width="524" height="449.35" rx="14" ry="14"/>
    <g id="cam">
      <g>
        <g id="cells">
          <rect id="cell_-2_4" class="st6" x="111.61" y="314.16" width="64" height="64" rx="8" ry="8"/>
          <rect id="cell_-1_4" class="st6" x="183.61" y="314.16" width="64" height="64" rx="8" ry="8"/>
          <rect id="cell_0_4" class="st6" x="255.61" y="314.16" width="64" height="64" rx="8" ry="8"/>
          <rect id="cell_1_4" class="st6" x="327.61" y="314.16" width="64" height="64" rx="8" ry="8"/>
          <rect id="cell_2_4" class="st6" x="399.61" y="314.16" width="64" height="64" rx="8" ry="8"/>
          <rect id="cell_-3_3" class="st6" x="39.61" y="386.16" width="64" height="64" rx="8" ry="8"/>
          <rect id="cell_-2_3" class="st6" x="111.61" y="386.16" width="64" height="64" rx="8" ry="8"/>
          <rect id="cell_-1_3" class="st6" x="183.61" y="386.16" width="64" height="64" rx="8" ry="8"/>
          <rect id="cell_0_3" class="st6" x="255.61" y="386.16" width="64" height="64" rx="8" ry="8"/>
          <rect id="cell_1_3" class="st6" x="327.61" y="386.16" width="64" height="64" rx="8" ry="8"/>
          <rect id="cell_2_3" class="st6" x="399.61" y="386.16" width="64" height="64" rx="8" ry="8"/>
          <rect id="cell_3_3" class="st6" x="471.61" y="386.16" width="64" height="64" rx="8" ry="8"/>
          <rect id="cell_-3_2" class="st6" x="39.61" y="458.16" width="64" height="64" rx="8" ry="8"/>
          <rect id="cell_-2_2" class="st6" x="111.61" y="458.16" width="64" height="64" rx="8" ry="8"/>
          <rect id="cell_-1_2" class="st6" x="183.61" y="458.16" width="64" height="64" rx="8" ry="8"/>
          <rect id="cell_0_2" class="st6" x="255.61" y="458.16" width="64" height="64" rx="8" ry="8"/>
          <rect id="cell_1_2" class="st6" x="327.61" y="458.16" width="64" height="64" rx="8" ry="8"/>
          <rect id="cell_2_2" class="st6" x="399.61" y="458.16" width="64" height="64" rx="8" ry="8"/>
          <rect id="cell_3_2" class="st6" x="471.61" y="458.16" width="64" height="64" rx="8" ry="8"/>
          <rect id="cell_-3_1" class="st6" x="39.61" y="530.16" width="64" height="64" rx="8" ry="8"/>
          <rect id="cell_-2_1" class="st6" x="111.61" y="530.16" width="64" height="64" rx="8" ry="8"/>
          <rect id="cell_-1_1" class="st6" x="183.61" y="530.16" width="64" height="64" rx="8" ry="8"/>
          <rect id="cell_0_1" class="st6" x="255.61" y="530.16" width="64" height="64" rx="8" ry="8"/>
          <rect id="cell_1_1" class="st6" x="327.61" y="530.16" width="64" height="64" rx="8" ry="8"/>
          <rect id="cell_2_1" class="st6" x="399.61" y="530.16" width="64" height="64" rx="8" ry="8"/>
          <rect id="cell_3_1" class="st6" x="471.61" y="530.16" width="64" height="64" rx="8" ry="8"/>
          <rect id="cell_-2_0" class="st6" x="111.61" y="602.16" width="64" height="64" rx="8" ry="8"/>
          <rect id="cell_-1_0" class="st6" x="183.61" y="602.16" width="64" height="64" rx="8" ry="8"/>
          <rect id="cell_0_0" class="st6" x="255.61" y="602.16" width="64" height="64" rx="8" ry="8"/>
          <rect id="cell_1_0" class="st6" x="327.61" y="602.16" width="64" height="64" rx="8" ry="8"/>
          <rect id="cell_2_0" class="st6" x="399.61" y="602.16" width="64" height="64" rx="8" ry="8"/>
          <rect id="cell_-1_-1" class="st6" x="183.61" y="674.16" width="64" height="64" rx="8" ry="8"/>
          <rect id="cell_0_-1" class="st6" x="255.61" y="674.16" width="64" height="64" rx="8" ry="8"/>
          <rect id="cell_1_-1" class="st6" x="327.61" y="674.16" width="64" height="64" rx="8" ry="8"/>
        </g>
        <g id="sprites">
          <g id="sprite_hero">
            <rect class="st13" x="275.61" y="622.16" width="24" height="24" rx="6" ry="6"/>
            <text class="st7" transform="translate(283.64 640.16)"><tspan x="0" y="0">Г</tspan></text>
          </g>
        </g>
      </g>
    </g>
  </g>
  <g id="btn_attack">
    <path class="st14" d="M506.21,741.01l27.13-15.66c1.61-.93,2.6-2.64,2.6-4.5v-31.32c0-1.85-.99-3.57-2.6-4.5l-27.13-15.66c-1.61-.93-3.58-.93-5.19,0l-27.13,15.66c-1.61.93-2.6,2.64-2.6,4.5v31.32c0,1.85.99,3.57,2.6,4.5l27.13,15.66c1.61.93,3.58.93,5.19,0Z"/>
    <g>
      <polygon class="st0" points="503.06 704.19 503.82 703.75 516.96 696.17 518.19 696.77 518.1 698.15 504.97 705.73 504.2 706.17 497.87 709.83 499.36 712.42 524.8 697.73 527.56 696.14 529.61 694.95 529.95 689.99 525.48 687.8 523.43 688.98 520.67 690.58 495.23 705.27 496.72 707.85 503.06 704.19"/>
      <polygon class="st0" points="486.29 718.64 492.28 715.18 490.79 712.6 489.3 710.01 483.3 713.47 479.47 715.68 478.73 714.39 476.56 715.64 477.31 716.93 478.05 718.23 478.8 719.52 479.55 720.81 480.29 722.11 481.04 723.4 483.21 722.15 482.46 720.85 486.29 718.64"/>
      <polygon class="st0" points="495.13 710.09 491 702.94 488.83 704.19 492.96 711.34 497.09 718.5 499.26 717.25 495.13 710.09"/>
    </g>
  </g>
  <g id="btn_defense">
    <path class="st14" d="M103.61,707.66v-37.68H39.61v37.68c0,8.83,4.71,17,12.36,21.41l19.64,11.34,19.64-11.34c7.65-4.42,12.36-12.58,12.36-21.41Z"/>
    <path class="st0" d="M71.61,683.98c2.49,0,4.98.28,7.41.83l1.54.35c2.07.47,4.18.81,6.3,1.01v20.89c0,2.94-1.58,5.68-4.13,7.15l-11.11,6.42-11.11-6.42c-2.55-1.47-4.13-4.21-4.13-7.15v-20.89c2.12-.2,4.22-.54,6.3-1.01l1.54-.35c2.43-.55,4.92-.83,7.41-.83M71.61,678.23c-2.91,0-5.82.32-8.67.97l-1.54.35c-3.25.73-6.57,1.1-9.9,1.1h-.88v26.4c0,5,2.67,9.62,7,12.13l13.99,8.08,13.99-8.08c4.33-2.5,7-7.12,7-12.13v-26.4h-.88c-3.33,0-6.65-.37-9.9-1.1l-1.54-.35c-2.86-.65-5.76-.97-8.67-.97h0Z"/>
  </g>
  <g id="btn_ranger_precise">
    <path class="st14" d="M506.21,657.92l17.77-10.26c1.61-.93,2.6-2.64,2.6-4.5v-20.52c0-1.85-.99-3.57-2.6-4.5l-17.77-10.26c-1.61-.93-3.58-.93-5.19,0l-17.77,10.26c-1.61.93-2.6,2.64-2.6,4.5v20.52c0,1.85.99,3.57,2.6,4.5l17.77,10.26c1.61.93,3.58.93,5.19,0Z"/>
    <path class="st0" d="M519.64,631.32h-3.93c-.71-5.47-5.05-9.8-10.52-10.52v-3.93h-3.17v3.93c-5.47.71-9.8,5.05-10.52,10.52h-3.93v3.17h3.93c.71,5.47,5.05,9.8,10.52,10.52v3.93h3.17v-3.93c5.47-.71,9.8-5.05,10.52-10.52h3.93v-3.17ZM505.19,641.8v-3.67h-3.17v3.67c-3.72-.66-6.65-3.6-7.32-7.32h3.67v-3.17h-3.67c.66-3.72,3.6-6.65,7.32-7.32v3.67h3.17v-3.67c3.72.66,6.65,3.6,7.32,7.32h-3.67v3.17h3.67c-.66,3.72-3.6,6.65-7.32,7.32Z"/>
  </g>
  <g id="btn_throw">
    <path class="st14" d="M433.89,730.21l17.77-10.26c1.61-.93,2.6-2.64,2.6-4.5v-20.52c0-1.85-.99-3.57-2.6-4.5l-17.77-10.26c-1.61-.93-3.58-.93-5.19,0l-17.77,10.26c-1.61.93-2.6,2.64-2.6,4.5v20.52c0,1.85.99,3.57,2.6,4.5l17.77,10.26c1.61.93,3.58.93,5.19,0Z"/>
    <g>
      <path class="st0" d="M443.5,701.32c-5.04,1.35-10.08,2.7-15.13,4.05l-.55-2.06,21.35-5.72-1.93,2.95c-1.88,2.88-4.75,4.96-8.07,5.85-3.28.88-6.55,1.76-9.83,2.63l-.55-2.06c4.9-1.88,9.8-3.76,14.7-5.63Z"/>
      <polygon class="st0" points="427.24 708.05 428.39 712.33 426.66 712.79 425.51 708.51 424.37 704.23 426.09 703.77 427.24 708.05"/>
      <rect class="st0" x="417.35" y="704.54" width="4.27" height="8.11" transform="translate(-156.4 1297.19) rotate(-105)"/>
      <path class="st0" d="M413.29,708.99h2.83c.99,0,1.79.8,1.79,1.79h-6.41c0-.99.8-1.79,1.79-1.79Z" transform="translate(-163.66 1294.18) rotate(-105)"/>
    </g>
    <polygon class="st0" points="449.18 697.58 426.35 696.71 426.41 695.71 449.18 697.58 449.18 697.58"/>
    <polygon class="st0" points="449.18 697.58 422.87 700.52 422.78 699.52 449.18 697.58 449.18 697.58"/>
    <polygon class="st0" points="449.18 697.58 443.41 712.03 442.49 711.62 449.18 697.58 449.18 697.58"/>
  </g>
  <g id="btn_potion">
    <path class="st14" d="M146.21,731.18l17.77-10.26c1.61-.93,2.6-2.64,2.6-4.5v-20.52c0-1.85-.99-3.57-2.6-4.5l-17.77-10.26c-1.61-.93-3.58-.93-5.19,0l-17.77,10.26c-1.61.93-2.6,2.64-2.6,4.5v20.52c0,1.85.99,3.57,2.6,4.5l17.77,10.26c1.61.93,3.58.93,5.19,0Z"/>
    <path class="st0" d="M147.15,698.69v-.69h.43c.89,0,1.61-.72,1.61-1.61v-.52c0-.89-.72-1.61-1.61-1.61h-7.94c-.89,0-1.61.72-1.61,1.61v.52c0,.89.72,1.61,1.61,1.61h.43v.69c0,1.68-.53,3.32-1.51,4.69l-1.5,2.09c-.98,1.37-1.51,3.01-1.51,4.69v5.51c0,1.32,1.07,2.39,2.39,2.39h11.35c1.32,0,2.39-1.07,2.39-2.39v-5.51c0-1.68-.53-3.32-1.51-4.69l-1.5-2.09c-.98-1.37-1.51-3.01-1.51-4.69Z"/>
  </g>
  <g id="btn_bandage">
    
    <g>
      <path class="st0" d="M71.61,617.91l-8.01,17.13c-.96,2.05-1.06,4.32-.42,6.38l13.23-13.23-4.81-10.28Z"/>
      <path class="st0" d="M78.22,632.04l-12.92,12.92s.04.05.06.07c3.45,3.45,9.05,3.45,12.5,0,2.63-2.63,3.33-6.62,1.76-9.99l-1.4-2.99Z"/>
    </g>
  </g>
  <g id="footer">
    <g id="player_input">
      <rect class="st12" x="26" y="809.1" width="524" height="77.22" rx="8.94" ry="8.94"/>
      <text id="input_text" class="st9" transform="translate(36.33 835.91)"><tspan x="0" y="0">Опишите ход... (черновик заполняется автоматически)</tspan></text>
    </g>
    <g id="btn_end_turn">
      <path class="st14" d="M217.38,902.1h141.24c12.81,0,23.19,10.38,23.19,23.19h0c0,12.81-10.38,23.19-23.19,23.19h-141.24c-12.81,0-23.19-10.38-23.19-23.19h0c0-12.81,10.38-23.19,23.19-23.19h0Z"/>
      <text class="st3" transform="translate(239.11 930.84)"><tspan x="0" y="0">КОНЕЦ ХОДА</tspan></text>
    </g>
  </g>
  <g id="btn_turn_left">
    <rect class="st12" x="52.4" y="329.98" width="38.41" height="38.41" rx="8" ry="8"/>
    <text class="st1" transform="translate(63.38 357.41)"><tspan x="0" y="0">⟲</tspan></text>
  </g>
  <g id="btn_turn_right">
    <rect class="st12" x="484.4" y="326.95" width="38.41" height="38.41" rx="8" ry="8"/>
    <text class="st1" transform="translate(495.38 354.39)"><tspan x="0" y="0">⟳</tspan></text>
  </g>
  <g id="dm_log">
    <rect class="st12" x="26" y="73.95" width="524" height="211.73" rx="11.5" ry="11.5"/>
    <text id="dm_log_text" class="st8" transform="translate(39.61 100.59) scale(1.03 1)"><tspan x="0" y="0">Текст БойРеж</tspan></text>
  </g>
  <g id="counter_atk">
    <path class="st12" d="M152.6,768.49h67.29c6.5,0,11.78,5.27,11.78,11.78h0c0,6.5-5.27,11.78-11.78,11.78h-67.29c-6.5,0-11.78-5.27-11.78-11.78h0c0-6.5,5.27-11.78,11.78-11.78Z"/>
    <text class="st4" transform="translate(165.29 784.47)"><tspan x="0" y="0">АТК 1/1</tspan></text>
  </g>
  <g id="counter_move">
    <path class="st12" d="M360.02,768.49h67.29c6.5,0,11.78,5.27,11.78,11.78h0c0,6.5-5.27,11.78-11.78,11.78h-67.29c-6.5,0-11.78-5.27-11.78-11.78h0c0-6.5,5.27-11.78,11.78-11.78Z"/>
    <text class="st4" transform="translate(365.84 784.47)"><tspan x="0" y="0">ДВИЖ 1/1</tspan></text>
  </g>
  <g id="counter_simple">
    <path class="st12" d="M258.09,768.49h67.29c6.5,0,11.78,5.27,11.78,11.78h0c0,6.5-5.27,11.78-11.78,11.78h-67.29c-6.5,0-11.78-5.27-11.78-11.78h0c0-6.5,5.27-11.78,11.78-11.78h0Z"/>
    <text class="st4" transform="translate(261.57 784.47)"><tspan x="0" y="0">ПРОСТ 1/1</tspan></text>
  </g>
  <g>
    <g>
      <polygon class="st6" points="373.26 38.72 372.37 38.72 357.21 38.72 356.44 37.58 357.21 36.43 372.37 36.43 373.26 36.43 380.57 36.43 380.57 33.45 351.2 33.45 348.01 33.45 345.64 33.45 342.86 37.58 345.64 41.71 348.01 41.71 351.2 41.71 380.57 41.71 380.57 38.72 373.26 38.72"/>
      <polygon class="st6" points="395.01 34.59 388.08 34.59 388.08 37.58 388.08 40.56 395.01 40.56 399.43 40.56 399.43 42.06 401.93 42.06 401.93 40.56 401.93 39.07 401.93 37.58 401.93 36.08 401.93 34.59 401.93 33.1 399.43 33.1 399.43 34.59 395.01 34.59"/>
      <polygon class="st6" points="383.08 37.58 383.08 45.84 385.58 45.84 385.58 37.58 385.58 29.32 383.08 29.32 383.08 37.58"/>
    </g>
    <g>
      <polygon class="st6" points="202.74 36.43 203.63 36.43 218.79 36.43 219.56 37.58 218.79 38.72 203.63 38.72 202.74 38.72 195.43 38.72 195.43 41.71 224.8 41.71 227.99 41.71 230.36 41.71 233.14 37.58 230.36 33.45 227.99 33.45 224.8 33.45 195.43 33.45 195.43 36.43 202.74 36.43"/>
      <polygon class="st6" points="180.99 40.56 187.92 40.56 187.92 37.58 187.92 34.59 180.99 34.59 176.57 34.59 176.57 33.1 174.07 33.1 174.07 34.59 174.07 36.08 174.07 37.58 174.07 39.07 174.07 40.56 174.07 42.06 176.57 42.06 176.57 40.56 180.99 40.56"/>
      <polygon class="st6" points="192.92 37.58 192.92 29.32 190.42 29.32 190.42 37.58 190.42 45.84 192.92 45.84 192.92 37.58"/>
    </g>
  </g>
  <g>
    <g>
      <polygon class="st6" points="489.58 925.27 488.7 925.27 473.53 925.27 472.76 924.13 473.53 922.98 488.7 922.98 489.58 922.98 496.9 922.98 496.9 920 467.52 920 464.34 920 461.97 920 459.19 924.13 461.97 928.26 464.34 928.26 467.52 928.26 496.9 928.26 496.9 925.27 489.58 925.27"/>
      <polygon class="st6" points="511.33 921.14 504.41 921.14 504.41 924.13 504.41 927.11 511.33 927.11 515.75 927.11 515.75 928.61 518.25 928.61 518.25 927.11 518.25 925.62 518.25 924.13 518.25 922.63 518.25 921.14 518.25 919.65 515.75 919.65 515.75 921.14 511.33 921.14"/>
      <polygon class="st6" points="499.4 924.13 499.4 932.39 501.91 932.39 501.91 924.13 501.91 915.87 499.4 915.87 499.4 924.13"/>
    </g>
    <g>
      <polygon class="st6" points="86.42 922.98 87.3 922.98 102.47 922.98 103.24 924.13 102.47 925.27 87.3 925.27 86.42 925.27 79.1 925.27 79.1 928.26 108.48 928.26 111.66 928.26 114.03 928.26 116.81 924.13 114.03 920 111.66 920 108.48 920 79.1 920 79.1 922.98 86.42 922.98"/>
      <polygon class="st6" points="64.67 927.11 71.59 927.11 71.59 924.13 71.59 921.14 64.67 921.14 60.25 921.14 60.25 919.65 57.75 919.65 57.75 921.14 57.75 922.63 57.75 924.13 57.75 925.62 57.75 927.11 57.75 928.61 60.25 928.61 60.25 927.11 64.67 927.11"/>
      <polygon class="st6" points="76.6 924.13 76.6 915.87 74.09 915.87 74.09 924.13 74.09 932.39 76.6 932.39 76.6 924.13"/>
    </g>
  </g>
  <g>
    <g>
      <polygon class="st6" points="489.58 781.42 488.7 781.42 473.53 781.42 472.76 780.27 473.53 779.13 488.7 779.13 489.58 779.13 496.9 779.13 496.9 776.14 467.52 776.14 464.34 776.14 461.97 776.14 459.19 780.27 461.97 784.4 464.34 784.4 467.52 784.4 496.9 784.4 496.9 781.42 489.58 781.42"/>
      <polygon class="st6" points="511.33 777.29 504.41 777.29 504.41 780.27 504.41 783.26 511.33 783.26 515.75 783.26 515.75 784.75 518.25 784.75 518.25 783.26 518.25 781.77 518.25 780.27 518.25 778.78 518.25 777.29 518.25 775.79 515.75 775.79 515.75 777.29 511.33 777.29"/>
      <polygon class="st6" points="499.4 780.27 499.4 788.53 501.91 788.53 501.91 780.27 501.91 772.01 499.4 772.01 499.4 780.27"/>
    </g>
    <g>
      <polygon class="st6" points="86.42 779.13 87.3 779.13 102.47 779.13 103.24 780.27 102.47 781.42 87.3 781.42 86.42 781.42 79.1 781.42 79.1 784.4 108.48 784.4 111.66 784.4 114.03 784.4 116.81 780.27 114.03 776.14 111.66 776.14 108.48 776.14 79.1 776.14 79.1 779.13 86.42 779.13"/>
      <polygon class="st6" points="64.67 783.26 71.59 783.26 71.59 780.27 71.59 777.29 64.67 777.29 60.25 777.29 60.25 775.79 57.75 775.79 57.75 777.29 57.75 778.78 57.75 780.27 57.75 781.77 57.75 783.26 57.75 784.75 60.25 784.75 60.25 783.26 64.67 783.26"/>
      <polygon class="st6" points="76.6 780.27 76.6 772.01 74.09 772.01 74.09 780.27 74.09 788.53 76.6 788.53 76.6 780.27"/>
    </g>
  </g>
</svg>