<?xml version="1.0" encoding="UTF-8"?>
<svg id="_Слой_1" data-name="Слой_1" xmlns="http://www.w3.org/2000/svg" version="1.1" viewBox="0 0 576 1024">
  <defs>
    <style>
      .st0 { font-size: 14px; }
      .st0, .st1, .st2, .st3, .st4, .st5, .st6, .st7, .st8 { isolation: isolate; }
      .st0, .st2, .st3, .st4, .st5, .st6, .st7, .st8 { fill: #fff; }
      .st0, .st2, .st4, .st5, .st6, .st7, .st8 { font-family: Arial-BoldMT, Arial; font-weight: 700; }
      .st1, .st4, .st9 { font-size: 15.94px; }
      .st1, .st9 { fill: #8b90a0; font-family: ArialMT, Arial; }
      .st10, .st11, .st12, .st13, .st14 { stroke: #2a2e37; }
      .st10, .st15 { fill: #7a57c6; }
      .st2 { font-size: 14.03px; }
      .st3 { font-family: MyriadPro-Regular, 'Myriad Pro'; font-size: 16px; }
      .st16, .st17 { stroke: #7a57c6; stroke-width: 3px; }
      .st11 { fill: #171920; }
      .st11, .st14 { stroke-width: 2px; }
      .st12 { stroke-width: 1.5px; }
      .st13 { fill: #262a33; }
      .st14 { fill: #1f222a; }
      .st5 { font-size: 8.34px; }
      .st6 { font-size: 10.67px; }
      .st7 { font-size: 22px; }
      .st8 { font-size: 9.78px; }
      .st17 { fill: none; }
      /* helper states */
      .hidden { display: none; }
      .is-disabled { opacity: .35; pointer-events: none; }
      .is-active { outline: 2px solid #7a57c6; outline-offset: 2px; }
    </style>
  </defs>
  <rect class="st11" y="0" width="576" height="1024" rx="16" ry="16"/>
  <text class="st7" transform="translate(266.61 27.29)">Бой</text>
  <g id="counter_atk" data-kind="atk">
    <path class="st13" d="M192.72,771.16h47.64c4.6,0,8.34,3.73,8.34,8.34h0c0,4.6-3.73,8.34-8.34,8.34h-47.64c-4.6,0-8.34-3.73-8.34-8.34h0c0-4.6,3.73-8.34,8.34-8.34Z"/>
    <text class="st5" transform="translate(201.7 782.47)">АТК 1/1</text>
  </g>
  <g id="counter_move" data-kind="move">
    <path class="st13" d="M339.56,771.16h47.64c4.6,0,8.34,3.73,8.34,8.34h0c0,4.6-3.73,8.34-8.34,8.34h-47.64c-4.6,0-8.34-3.73-8.34-8.34h0c0-4.6,3.73-8.34,8.34-8.34Z"/>
    <text class="st5" transform="translate(343.68 782.47)">ДВИЖ 1/1</text>
  </g>
  <g id="counter_simple" data-kind="simple">
    <path class="st13" d="M267.4,771.16h47.64c4.6,0,8.34,3.73,8.34,8.34h0c0,4.6-3.73,8.34-8.34,8.34h-47.64c-4.6,0-8.34-3.73-8.34-8.34h0c0-4.6,3.73-8.34,8.34-8.34Z"/>
    <text class="st5" transform="translate(269.86 782.47)">ПРОСТ 1/1</text>
  </g>
  <g id="btn_rollback" class="btn">
    <rect class="st13" x="399.61" y="967.34" width="28" height="28" rx="8" ry="8"/>
    <text class="st3" transform="translate(407.61 987.34)">↺</text>
  </g>
  <g id="board">
    <rect class="st14" x="26" y="285.61" width="524" height="472" rx="14" ry="14"/>
    <g id="cam">
      <g id="cells">
        <rect id="cell_-2_4" class="st12" x="111.61" y="313.61" width="64" height="64" rx="8" ry="8" data-x="-2" data-y="4"/>
        <rect id="cell_-1_4" class="st12" x="183.61" y="313.61" width="64" height="64" rx="8" ry="8" data-x="-1" data-y="4"/>
        <rect id="cell_0_4" class="st12" x="255.61" y="313.61" width="64" height="64" rx="8" ry="8" data-x="0" data-y="4"/>
        <rect id="cell_1_4" class="st12" x="327.61" y="313.61" width="64" height="64" rx="8" ry="8" data-x="1" data-y="4"/>
        <rect id="cell_2_4" class="st12" x="399.61" y="313.61" width="64" height="64" rx="8" ry="8" data-x="2" data-y="4"/>
        <rect id="cell_-3_3" class="st12" x="39.61" y="385.61" width="64" height="64" rx="8" ry="8" data-x="-3" data-y="3"/>
        <rect id="cell_-2_3" class="st12" x="111.61" y="385.61" width="64" height="64" rx="8" ry="8" data-x="-2" data-y="3"/>
        <rect id="cell_-1_3" class="st12" x="183.61" y="385.61" width="64" height="64" rx="8" ry="8" data-x="-1" data-y="3"/>
        <rect id="cell_0_3" class="st12" x="255.61" y="385.61" width="64" height="64" rx="8" ry="8" data-x="0" data-y="3"/>
        <rect id="cell_1_3" class="st12" x="327.61" y="385.61" width="64" height="64" rx="8" ry="8" data-x="1" data-y="3"/>
        <rect id="cell_2_3" class="st12" x="399.61" y="385.61" width="64" height="64" rx="8" ry="8" data-x="2" data-y="3"/>
        <rect id="cell_3_3" class="st12" x="471.61" y="385.61" width="64" height="64" rx="8" ry="8" data-x="3" data-y="3"/>
        <rect id="cell_-3_2" class="st12" x="39.61" y="457.61" width="64" height="64" rx="8" ry="8" data-x="-3" data-y="2"/>
        <rect id="cell_-2_2" class="st12" x="111.61" y="457.61" width="64" height="64" rx="8" ry="8" data-x="-2" data-y="2"/>
        <rect id="cell_-1_2" class="st12" x="183.61" y="457.61" width="64" height="64" rx="8" ry="8" data-x="-1" data-y="2"/>
        <rect id="cell_0_2" class="st12" x="255.61" y="457.61" width="64" height="64" rx="8" ry="8" data-x="0" data-y="2"/>
        <rect id="cell_1_2" class="st12" x="327.61" y="457.61" width="64" height="64" rx="8" ry="8" data-x="1" data-y="2"/>
        <rect id="cell_2_2" class="st12" x="399.61" y="457.61" width="64" height="64" rx="8" ry="8" data-x="2" data-y="2"/>
        <rect id="cell_3_2" class="st12" x="471.61" y="457.61" width="64" height="64" rx="8" ry="8" data-x="3" data-y="2"/>
        <rect id="cell_-3_1" class="st12" x="39.61" y="529.61" width="64" height="64" rx="8" ry="8" data-x="-3" data-y="1"/>
        <rect id="cell_-2_1" class="st12" x="111.61" y="529.61" width="64" height="64" rx="8" ry="8" data-x="-2" data-y="1"/>
        <rect id="cell_-1_1" class="st12" x="183.61" y="529.61" width="64" height="64" rx="8" ry="8" data-x="-1" data-y="1"/>
        <rect id="cell_0_1" class="st12" x="255.61" y="529.61" width="64" height="64" rx="8" ry="8" data-x="0" data-y="1"/>
        <rect id="cell_1_1" class="st12" x="327.61" y="529.61" width="64" height="64" rx="8" ry="8" data-x="1" data-y="1"/>
        <rect id="cell_2_1" class="st12" x="399.61" y="529.61" width="64" height="64" rx="8" ry="8" data-x="2" data-y="1"/>
        <rect id="cell_3_1" class="st12" x="471.61" y="529.61" width="64" height="64" rx="8" ry="8" data-x="3" data-y="1"/>
        <rect id="cell_-2_0" class="st12" x="111.61" y="601.61" width="64" height="64" rx="8" ry="8" data-x="-2" data-y="0"/>
        <rect id="cell_-1_0" class="st12" x="183.61" y="601.61" width="64" height="64" rx="8" ry="8" data-x="-1" data-y="0"/>
        <rect id="cell_0_0" class="st16" x="255.61" y="601.61" width="64" height="64" rx="8" ry="8" data-x="0" data-y="0"/>
        <rect id="cell_1_0" class="st12" x="327.61" y="601.61" width="64" height="64" rx="8" ry="8" data-x="1" data-y="0"/>
        <rect id="cell_2_0" class="st12" x="399.61" y="601.61" width="64" height="64" rx="8" ry="8" data-x="2" data-y="0"/>
        <rect id="cell_-1_-1" class="st12" x="183.61" y="673.61" width="64" height="64" rx="8" ry="8" data-x="-1" data-y="-1"/>
        <rect id="cell_0_-1" class="st12" x="255.61" y="673.61" width="64" height="64" rx="8" ry="8" data-x="0" data-y="-1"/>
        <rect id="cell_1_-1" class="st12" x="327.61" y="673.61" width="64" height="64" rx="8" ry="8" data-x="1" data-y="-1"/>
      </g>
      <g id="obstacles"></g>
      <g id="sprites">
        <g id="sprite_hero" data-type="hero" data-x="0" data-y="0">
          <rect class="st17" x="275.61" y="621.61" width="24" height="24" rx="6" ry="6"/>
          <text class="st0" transform="translate(283.64 639.61)">Г</text>
        </g>
      </g>
    </g>
  </g>
  <g id="btn_ATTAK" class="btn">
    <path class="st15" d="M43.27,803.3h135.91c9.96,0,18.04,8.08,18.04,18.04h0c0,9.96-8.08,18.04-18.04,18.04H43.27c-9.96,0-18.04-8.08-18.04-18.04h0c0-9.96,8.08-18.04,18.04-18.04Z"/>
    <text class="st2" transform="translate(75.06 824.72)">Атаковать</text>
  </g>
  <g id="btn_defense" class="btn">
    <path class="st15" d="M396.05,803.3h135.91c9.96,0,18.04,8.08,18.04,18.04h0c0,9.96-8.08,18.04-18.04,18.04h-135.91c-9.96,0-18.04-8.08-18.04-18.04h0c0-9.96,8.08-18.04,18.04-18.04Z"/>
    <text class="st2" transform="translate(433.22 824.72)">Оборона</text>
  </g>
  <g id="btn_ranger_precise" class="btn">
    <path class="st15" d="M220.85,803.3h134.3c9.96,0,18.04,8.08,18.04,18.04h0c0,9.96-8.08,18.04-18.04,18.04h-134.3c-9.96,0-18.04-8.08-18.04-18.04h0c0-9.96,8.08-18.04,18.04-18.04Z"/>
    <text class="st2" transform="translate(230.45 824.72)">Меткий выстрел</text>
  </g>
  <g id="simple_actions">
    <g id="btn_throw" class="btn">
      <path class="st15" d="M163.04,852.87h56.39c7.57,0,13.72,6.14,13.72,13.72h0c0,7.57-6.14,13.72-13.72,13.72h-56.39c-7.57,0-13.72-6.14-13.72-13.72h0c0-7.57,6.14-13.72,13.72-13.72Z"/>
      <text class="st6" transform="translate(169.14 870.4)">Метнуть</text>
    </g>
    <g id="btn_potion" class="btn">
      <path class="st15" d="M256,852.87h48.77c7.57,0,13.72,6.14,13.72,13.72h0c0,7.57-6.14,13.72-13.72,13.72h-48.77c-7.57,0-13.72-6.14-13.72-13.72h0c0-7.57,6.14-13.72,13.72-13.72Z"/>
      <text class="st6" transform="translate(264.44 870.4)">Зелье</text>
    </g>
    <g id="btn_bandage" class="btn">
      <path class="st15" d="M341.34,852.87h71.62c7.57,0,13.72,6.14,13.72,13.72h0c0,7.57-6.14,13.72-13.72,13.72h-71.62c-7.57,0-13.72-6.14-13.72-13.72h0c0-7.57,6.14-13.72,13.72-13.72Z"/>
      <text class="st6" transform="translate(349.52 870.4)">Перевязка</text>
    </g>
  </g>
  <g id="footer">
    <g id="player_input">
      <path class="st13" d="M45.44,893.79h485.12c13.84,0,25.05,11.22,25.05,25.05h0c0,13.84-11.22,25.05-25.05,25.05H45.44c-13.84,0-25.05-11.22-25.05-25.05h0c0-13.84,11.22-25.05,25.05-25.05Z"/>
      <text id="input_text" class="st1" transform="translate(36.33 925.67)">Опишите ход... (черновик заполняется автоматически)</text>
    </g>
    <g id="btn_end_turn" class="btn">
      <path class="st15" d="M211.7,956.29h152.6c13.84,0,25.05,11.22,25.05,25.05h0c0,13.84-11.22,25.05-25.05,25.05h-152.6c-13.84,0-25.05-11.22-25.05-25.05h0c0-13.84,11.22-25.05,25.05-25.05Z"/>
      <text class="st4" transform="translate(235.18 987.34)">КОНЕЦ ХОДА</text>
    </g>
  </g>
  <g id="btn_turn_left" class="btn">
    <rect class="st13" x="57.61" y="691.61" width="28" height="28" rx="8" ry="8"/>
    <text class="st3" transform="translate(65.61 711.61)">⟲</text>
  </g>
  <g id="btn_turn_right" class="btn">
    <rect class="st13" x="489.61" y="691.61" width="28" height="28" rx="8" ry="8"/>
    <text class="st3" transform="translate(497.61 711.61)">⟳</text>
  </g>
  <g id="badge_defense">
    <path class="st10" d="M263.87,654.06h47.48c5.4,0,9.78,4.38,9.78,9.78h0c0,5.4-4.38,9.78-9.78,9.78h-47.48c-5.4,0-9.78-4.38-9.78-9.78h0c0-5.4,4.38-9.78,9.78-9.78Z"/>
    <text class="st8" transform="translate(266.17 667.32)">Оборона</text>
  </g>
  <g id="dm_log">
    <rect class="st13" x="26" y="42" width="524" height="228" rx="11.5" ry="11.5"/>
    <text id="dm_log_text" class="st9" transform="translate(39.61 70.07)">Текст БойРеж</text>
  </g>
</svg>
